<svg id="Layer_1" data-name="Layer 1" xmlns="http://www.w3.org/2000/svg" viewBox="0 0 192 80"><defs><style>.cls-1{fill:#fff;}.cls-2{fill:#ea222f;}.cls-3{fill:#0798d5;}</style></defs><title>GSH_Logo_White</title><path class="cls-1" d="M25.53,65a39.66,39.66,0,0,0,.16,4.39,1.75,1.75,0,0,0,.59,1.26q5.34,4.58,10.64,9.19c.35.3.5.2.76-.09.66-.76,1.36-1.5,2-2.24l8-8.52a.78.78,0,0,0,.3-.77,43.29,43.29,0,0,1-.69-11.73A39.94,39.94,0,0,1,49,47.61,41.3,41.3,0,0,1,63.34,27.06a1.44,1.44,0,0,0,.57-1.53c0-.23-.12-.46-.15-.7-.41-3.45-.89-6.89-1.25-10.34-.09-.95-.54-.8-1.07-.76-2.16.16-4.33.37-6.49.52s-4.23.27-6.35.37a1.49,1.49,0,0,0-.8.35,43.8,43.8,0,0,0-5,4.15A50.81,50.81,0,0,0,32.4,33.48,72.55,72.55,0,0,0,25.53,65Zm145,4.46h13c.61,0,.61-.38.7-.8q2.17-10.28,4.35-20.56c1.14-5.37,2.27-10.75,3.41-16.17H178.9c-.49,0-.55.27-.64.66-.81,3.86-1.67,7.71-2.5,11.58-.12.64-.36.76-.91.75H166.5l2.62-12.21c.11-.51.1-.78-.59-.77H156.36c-.42,0-.64,0-.75.58-.55,2.86-1.19,5.7-1.78,8.55-1.95,9.2-3.88,18.42-5.88,27.61-.19.86.14.78.71.78h11.82c.67,0,.91-.23,1-.85.81-4,1.66-8,2.5-12,.09-.42.22-.67.75-.66h7.91c.44,0,.62,0,.5.61C172.29,60.79,171.4,65.06,170.51,69.44Zm-66.33-26.8a1.49,1.49,0,0,0,.12-.29c.69-3,1.36-6.07,2-9.12.14-.58-.19-.68-.62-.77a42.72,42.72,0,0,0-6.24-.95,49.67,49.67,0,0,0-13.15.42A26.08,26.08,0,0,0,72.61,39,22.25,22.25,0,0,0,66.1,57.49a12.22,12.22,0,0,0,4.78,8.74A20,20,0,0,0,82.59,70a52.4,52.4,0,0,0,6.65-.11A58.52,58.52,0,0,0,99.58,68.2a.82.82,0,0,0,.7-.73c1.25-5.45,2.43-10.89,3.67-16.32.12-.56,0-.75-.61-.73H92.59c-.61,0-.79.24-.9.78-.62,2.9-1.25,5.79-1.92,8.69a.7.7,0,0,1-.65.67,12.77,12.77,0,0,1-3.88.11,5,5,0,0,1-4.57-4.17,11.87,11.87,0,0,1,0-4.36A13.13,13.13,0,0,1,85,43.95a14.15,14.15,0,0,1,8.24-3.27,20.4,20.4,0,0,1,10.93,2Zm30.2-11.38a36.25,36.25,0,0,0-9.45,1c-6.63,1.67-11.44,5.22-12.48,12.64a7.38,7.38,0,0,0,3.06,7.67,16.84,16.84,0,0,0,5.43,2.23,53.08,53.08,0,0,1,6.39,1.62c.74.29,1.5.64,1.56,1.62a2.14,2.14,0,0,1-1.4,2.07,9,9,0,0,1-4,1,30.21,30.21,0,0,1-13.13-2.12c-.52-.21-.74-.23-.87.43q-.85,4.13-1.82,8.26c-.14.58-.1.75.51.89a60.39,60.39,0,0,0,10,1.48,40,40,0,0,0,12.4-.81c6.78-1.73,11.77-5.37,12.91-12.88.5-3.24-.24-6.11-3.44-8.05A21.52,21.52,0,0,0,133.33,46a21.07,21.07,0,0,1-5.24-1.43,1.67,1.67,0,0,1-.44-2.9,3.73,3.73,0,0,1,1.6-.91,11.57,11.57,0,0,1,3.32-.46A29.77,29.77,0,0,1,143.8,42c.44.16.61,0,.71-.39.62-2.84,1.25-5.68,1.9-8.51.1-.46,0-.53-.44-.62a55.58,55.58,0,0,0-11.64-1.14Z"/><path class="cls-1" d="M170.51,69.44c.92-4.37,1.81-8.64,2.75-12.9.12-.57,0-.61-.5-.61h-7.91c-.52,0-.66.24-.75.66q-1.25,6-2.5,12c-.12.62-.36.86-1,.85H148.75c-.56,0-.89.06-.71-.78,2-9.19,3.93-18.41,5.88-27.61.6-2.84,1.25-5.69,1.78-8.55.1-.54.31-.58.75-.58h12.17c.69,0,.69.28.59.77l-2.62,12.21h8.36c.55,0,.79-.09.91-.75.77-3.87,1.63-7.71,2.5-11.58.09-.39.14-.66.64-.66h13c-1.15,5.42-2.27,10.8-3.41,16.17q-2.17,10.28-4.35,20.56c-.09.42-.09.81-.7.8C179.16,69.42,174.87,69.44,170.51,69.44Z"/><path class="cls-1" d="M104.14,42.63a20.4,20.4,0,0,0-11.06-1.95A14.15,14.15,0,0,0,84.85,44a13.13,13.13,0,0,0-4.3,8.18,11.87,11.87,0,0,0,0,4.36,5,5,0,0,0,4.57,4.17A12.77,12.77,0,0,0,89,60.56a.7.7,0,0,0,.65-.67c.62-2.9,1.25-5.79,1.92-8.69.11-.54.29-.78.9-.78h10.74c.62,0,.74.18.61.73-1.25,5.44-2.5,10.87-3.67,16.32a.82.82,0,0,1-.7.73,58.52,58.52,0,0,1-10.33,1.71,52.4,52.4,0,0,1-6.65.11,20,20,0,0,1-11.72-3.79A12.22,12.22,0,0,1,66,57.5,22.25,22.25,0,0,1,72.49,39a26.08,26.08,0,0,1,13.73-7.11,49.67,49.67,0,0,1,13.18-.37,42.72,42.72,0,0,1,6.24.95c.44.09.76.2.62.77-.69,3-1.36,6.08-2,9.12A1.5,1.5,0,0,1,104.14,42.63Z"/><path class="cls-1" d="M134.33,31.3A55.58,55.58,0,0,1,146,32.43c.42.09.54.15.44.62-.65,2.83-1.25,5.68-1.9,8.51-.1.44-.27.56-.71.39a29.77,29.77,0,0,0-11.23-1.68,11.57,11.57,0,0,0-3.32.46,3.73,3.73,0,0,0-1.6.91,1.67,1.67,0,0,0-.35,2.31,1.64,1.64,0,0,0,.8.59,21.07,21.07,0,0,0,5.25,1.4,21.52,21.52,0,0,1,6.71,2.28c3.22,1.95,3.94,4.83,3.44,8.05-1.15,7.51-6.14,11.15-12.91,12.88a40,40,0,0,1-12.4.81,60.39,60.39,0,0,1-10-1.48c-.62-.14-.65-.32-.51-.89q1-4.11,1.82-8.26c.14-.67.35-.64.87-.43A30.21,30.21,0,0,0,123.51,61a9,9,0,0,0,4-1,2.14,2.14,0,0,0,1.39-2.12c-.07-1-.82-1.26-1.56-1.62a53.08,53.08,0,0,0-6.39-1.62,16.84,16.84,0,0,1-5.43-2.23,7.38,7.38,0,0,1-3.06-7.67c1-7.36,5.83-10.91,12.48-12.64A36.24,36.24,0,0,1,134.33,31.3Z"/><path class="cls-2" d="M44.81,13.14c-14.91,13-22.31,29.34-22,51.38,0,1.2.14,1.73.21,3.5L12.13,79.61.42,69.57a63.61,63.61,0,0,1-.41-8A78.77,78.77,0,0,1,29,1.11L43.31,0l1.56,12.95"/><path class="cls-3" d="M64.07,26.59l-1.46-12.9-11.23.82-2.76.15a1.13,1.13,0,0,0-.52.18h0l-.27.18a43.8,43.8,0,0,0-5,4.15A50.81,50.81,0,0,0,32.41,33.53a72.54,72.54,0,0,0-6.93,31.39,39.66,39.66,0,0,0,.16,4.39,1.75,1.75,0,0,0,.59,1.26q5.34,4.58,10.64,9.19c.35.3.5.2.76-.09.66-.76,1.36-1.5,2-2.24l8-8.52a.78.78,0,0,0,.3-.77,43.29,43.29,0,0,1-.69-11.73A39.94,39.94,0,0,1,49,47.56,41.19,41.19,0,0,1,62,28.23Z"/></svg>