<svg xmlns="http://www.w3.org/2000/svg" viewBox="0 0 92.54 148.04"><defs><style>.cls-1{fill:none;stroke:#fff;stroke-miterlimit:10;stroke-width:6.25px;}</style></defs><title>phoneAsset 1</title><g id="Layer_2" data-name="Layer 2"><g id="Layer_1-2" data-name="Layer 1"><path class="cls-1" d="M89.18,116.17C83.11,106,70.93,95.74,60.44,92.12c-3.74,1.34-11.64,6.09-14.68,8.65-5.39-4.25-10.16-13.35-14.07-22.7s-7-19.13-6.28-26c4-.37,12.89-2.66,16.47-4.38,4.78-10,6-25.87,3-37.35C39,7.07,23.93,2,11.85,3.34,4,15.63-3.58,44.09,13.07,85.86,31.14,127,56.73,141.63,71,144.67,80.4,137,87.37,122.73,89.18,116.17Z"/></g></g></svg>