<svg xmlns="http://www.w3.org/2000/svg" viewBox="0 0 120.56 155.14"><defs><style>.cls-1{fill:#fff;}.cls-1,.cls-2{stroke:#fff;stroke-miterlimit:10;}.cls-2{fill:none;stroke-width:6.25px;}</style></defs><title>profileAsset 1</title><g id="Layer_2" data-name="Layer 2"><g id="Layer_1-2" data-name="Layer 1"><path class="cls-1" d="M87,102.35H76.81V89.76a34.12,34.12,0,0,0,17-23,10.17,10.17,0,0,0,8.83-10.07V45.9a10.18,10.18,0,0,0-8.14-10V34.63a34.13,34.13,0,0,0-68.26,0v1.3A10.18,10.18,0,0,0,18,45.9V56.64a10.18,10.18,0,0,0,8.92,10.08,34.12,34.12,0,0,0,16.86,23v12.64H33.52a33.06,33.06,0,0,0-33,33v19.26H120.06V135.38A33.06,33.06,0,0,0,87,102.35ZM60.32,6.5A28.16,28.16,0,0,1,88.45,34.63v1.21c-9.38-2.1-12.69-15.89-12.72-16L74.14,12.9l-3.86,6c-.48.74-11.82,17.7-38.09,17.16V34.63A28.16,28.16,0,0,1,60.32,6.5ZM32.4,63.32,32,60.14l-3.15.59a4,4,0,0,1-.74.07A4.17,4.17,0,0,1,24,56.64V45.9a4.11,4.11,0,0,1,4.78-4.11l3.45.52V42l1.23,0c20.41,0,32.67-9.59,38.27-15.48,2.39,5.71,7.42,14,16.76,15.37v.32l3.4-.46a4.24,4.24,0,0,1,.58,0,4.16,4.16,0,0,1,4.16,4.16V56.64a4.16,4.16,0,0,1-4.16,4.16,4.06,4.06,0,0,1-.7-.07l-3.11-.54-.38,3.13a28.13,28.13,0,0,1-55.83,0Zm17.34,45v-16a34.08,34.08,0,0,0,21.06,0v16H87a27.06,27.06,0,0,1,27,27v13.26H6.5V135.38a27.05,27.05,0,0,1,27-27Zm10.53,38"/><path class="cls-1" d="M68,76.36a3,3,0,0,0-3-3h-9.5a3,3,0,0,0,0,6H65A3,3,0,0,0,68,76.36Z"/><polyline class="cls-2" points="86.96 105.44 60.28 133.8 33.59 105.44"/></g></g></svg>